<svg xmlns="http://www.w3.org/2000/svg" viewBox="0 0 100 100" width="100" height="100">
  <!-- Background circle -->
  <circle cx="50" cy="50" r="48" fill="#f59e0b" stroke="#d97706" stroke-width="2"/>
  
  <!-- Open book shape -->
  <g transform="translate(50, 50)">
    <!-- Left page -->
    <path d="M-18 -15 Q-18 -20 -12 -20 L-2 -20 Q0 -18 0 -15 L0 12 Q0 15 -2 15 L-12 15 Q-18 15 -18 12 Z" 
          fill="#ffffff" stroke="#d97706" stroke-width="1"/>
    
    <!-- Right page -->
    <path d="M18 -15 Q18 -20 12 -20 L2 -20 Q0 -18 0 -15 L0 12 Q0 15 2 15 L12 15 Q18 15 18 12 Z" 
          fill="#ffffff" stroke="#d97706" stroke-width="1"/>
    
    <!-- Book spine/binding -->
    <rect x="-1" y="-20" width="2" height="35" fill="#d97706"/>
    
    <!-- Page lines on left -->
    <line x1="-14" y1="-10" x2="-4" y2="-10" stroke="#f59e0b" stroke-width="0.5"/>
    <line x1="-14" y1="-6" x2="-4" y2="-6" stroke="#f59e0b" stroke-width="0.5"/>
    <line x1="-14" y1="-2" x2="-4" y2="-2" stroke="#f59e0b" stroke-width="0.5"/>
    <line x1="-14" y1="2" x2="-4" y2="2" stroke="#f59e0b" stroke-width="0.5"/>
    <line x1="-14" y1="6" x2="-4" y2="6" stroke="#f59e0b" stroke-width="0.5"/>
    
    <!-- Page lines on right -->
    <line x1="4" y1="-10" x2="14" y2="-10" stroke="#f59e0b" stroke-width="0.5"/>
    <line x1="4" y1="-6" x2="14" y2="-6" stroke="#f59e0b" stroke-width="0.5"/>
    <line x1="4" y1="-2" x2="14" y2="-2" stroke="#f59e0b" stroke-width="0.5"/>
    <line x1="4" y1="2" x2="14" y2="2" stroke="#f59e0b" stroke-width="0.5"/>
    <line x1="4" y1="6" x2="14" y2="6" stroke="#f59e0b" stroke-width="0.5"/>
  </g>
</svg>
